{
	"asset":{
		"generator":"Khronos glTF Blender I/O v4.2.57",
		"version":"2.0"
	},
	"scene":0,
	"scenes":[
		{
			"name":"Scene",
			"nodes":[
				0,
				1,
				2,
				3,
				4,
				5,
				6,
				7,
				8,
				9,
				10
			]
		}
	],
	"nodes":[
		{
			"mesh":0,
			"name":"decorative-ceramic-vase-005",
			"translation":[
				0.005995275918394327,
				-0.0203601885586977,
				0.012447147630155087
			]
		},
		{
			"mesh":1,
			"name":"Cylinder",
			"rotation":[
				0,
				0,
				-1,
				0
			],
			"scale":[
				-0.08000048249959946,
				-50.99999237060547,
				-0.0699993222951889
			],
			"translation":[
				0.006305735558271408,
				0.12677308917045593,
				0.013720644637942314
			]
		},
		{
			"mesh":2,
			"name":"SurfSphere",
			"rotation":[
				-0.6124551296234131,
				-0.3648441433906555,
				0.10958386212587357,
				0.6926608085632324
			],
			"scale":[
				-0.11280000954866409,
				-0.20745694637298584,
				-0.01846371591091156
			],
			"translation":[
				0.006922997068613768,
				0.14193740487098694,
				0.0008231793181039393
			]
		},
		{
			"mesh":3,
			"name":"SurfSphere.001",
			"rotation":[
				-0.45105212926864624,
				-0.017064524814486504,
				0.06340894103050232,
				0.8900787234306335
			],
			"scale":[
				-0.1128000020980835,
				-0.20745694637298584,
				-0.01846371591091156
			],
			"translation":[
				0.007877035066485405,
				0.11817222088575363,
				0.0014662108151242137
			]
		},
		{
			"mesh":4,
			"name":"SurfSphere.002",
			"rotation":[
				-0.7602192759513855,
				-0.4397587180137634,
				-0.09508946537971497,
				0.4686543643474579
			],
			"scale":[
				-0.11280000954866409,
				-0.20745694637298584,
				-0.01846371591091156
			],
			"translation":[
				-0.010595658794045448,
				0.13814397156238556,
				0.02157091535627842
			]
		},
		{
			"mesh":5,
			"name":"SurfSphere.003",
			"rotation":[
				-0.8715121746063232,
				0.06653010100126266,
				0.11295094341039658,
				0.4725278317928314
			],
			"scale":[
				-0.1128000020980835,
				-0.20745694637298584,
				-0.01846371591091156
			],
			"translation":[
				0.009757660329341888,
				0.1791960448026657,
				0.025700315833091736
			]
		},
		{
			"mesh":6,
			"name":"SurfSphere.004",
			"rotation":[
				-0.6085189580917358,
				0.01531296968460083,
				0.4654976725578308,
				0.6424812078475952
			],
			"scale":[
				-0.1128000020980835,
				-0.20745694637298584,
				-0.01846371591091156
			],
			"translation":[
				0.01633310131728649,
				0.13207180798053741,
				0.025042355060577393
			]
		},
		{
			"mesh":7,
			"name":"SurfSphere.005",
			"rotation":[
				-0.7336320877075195,
				-0.5119015574455261,
				-0.2208157479763031,
				0.3885628879070282
			],
			"scale":[
				-0.1128000020980835,
				-0.20745696127414703,
				-0.01846371591091156
			],
			"translation":[
				-0.006319647189229727,
				0.15062066912651062,
				0.016761034727096558
			]
		},
		{
			"mesh":8,
			"name":"SurfSphere.006",
			"rotation":[
				-0.7602192759513855,
				-0.4397587180137634,
				-0.09508946537971497,
				0.4686543643474579
			],
			"scale":[
				-0.11280000954866409,
				-0.20745694637298584,
				-0.01846371591091156
			],
			"translation":[
				-0.006677102763205767,
				0.11788889020681381,
				0.02205001562833786
			]
		},
		{
			"mesh":9,
			"name":"SurfSphere.007",
			"rotation":[
				-0.3950568735599518,
				-0.7868101596832275,
				-0.11088041961193085,
				0.46104809641838074
			],
			"scale":[
				-0.1128000020980835,
				-0.20745694637298584,
				-0.01846371591091156
			],
			"translation":[
				0.018543481826782227,
				0.15692605078220367,
				0.011717023327946663
			]
		},
		{
			"mesh":10,
			"name":"SurfSphere.008",
			"rotation":[
				-0.2772355079650879,
				-0.8044939637184143,
				0.43409356474876404,
				0.2957916855812073
			],
			"scale":[
				-0.1128000020980835,
				-0.20745693147182465,
				-0.01846371591091156
			],
			"translation":[
				0.008291656151413918,
				0.177382692694664,
				-6.251153536140919e-06
			]
		}
	],
	"materials":[
		{
			"doubleSided":true,
			"name":"decorative-ceramic-vase-005"
		},
		{
			"doubleSided":true,
			"name":"Material.008",
			"pbrMetallicRoughness":{
				"baseColorFactor":[
					0.037739187479019165,
					0.8000074625015259,
					0.01112698670476675,
					1
				],
				"metallicFactor":0,
				"roughnessFactor":0.5
			}
		},
		{
			"doubleSided":true,
			"name":"Material.002",
			"pbrMetallicRoughness":{
				"baseColorFactor":[
					0.061619773507118225,
					0.8000229597091675,
					0.014288129284977913,
					1
				],
				"metallicFactor":0,
				"roughnessFactor":0.5
			}
		},
		{
			"doubleSided":true,
			"name":"Material.003",
			"pbrMetallicRoughness":{
				"baseColorFactor":[
					0.041204698383808136,
					0.8000156879425049,
					0.01966819353401661,
					1
				],
				"metallicFactor":0,
				"roughnessFactor":0.5
			}
		},
		{
			"doubleSided":true,
			"name":"Material.006",
			"pbrMetallicRoughness":{
				"baseColorFactor":[
					0.03525674343109131,
					0.8000074625015259,
					0.028042830526828766,
					1
				],
				"metallicFactor":0,
				"roughnessFactor":0.5
			}
		},
		{
			"doubleSided":true,
			"name":"Material.004",
			"pbrMetallicRoughness":{
				"baseColorFactor":[
					0.0458519384264946,
					0.8000074625015259,
					0.020636089146137238,
					1
				],
				"metallicFactor":0,
				"roughnessFactor":0.5
			}
		},
		{
			"doubleSided":true,
			"name":"Material.009",
			"pbrMetallicRoughness":{
				"baseColorFactor":[
					0.08908172696828842,
					0.8000074625015259,
					0.025400277227163315,
					1
				],
				"metallicFactor":0,
				"roughnessFactor":0.5
			}
		},
		{
			"doubleSided":true,
			"name":"Material.005",
			"pbrMetallicRoughness":{
				"baseColorFactor":[
					0.06264083832502365,
					0.8000074625015259,
					0.011347277089953423,
					1
				],
				"metallicFactor":0,
				"roughnessFactor":0.5
			}
		},
		{
			"doubleSided":true,
			"name":"Material.007",
			"pbrMetallicRoughness":{
				"baseColorFactor":[
					0.05721490830183029,
					0.8000074625015259,
					0.018904196098446846,
					1
				],
				"metallicFactor":0,
				"roughnessFactor":0.5
			}
		},
		{
			"doubleSided":true,
			"name":"Material.001",
			"pbrMetallicRoughness":{
				"baseColorFactor":[
					0.04756535589694977,
					0.8000229597091675,
					0.022940317168831825,
					1
				],
				"metallicFactor":0,
				"roughnessFactor":0.5
			}
		},
		{
			"doubleSided":true,
			"name":"Material",
			"pbrMetallicRoughness":{
				"metallicFactor":0,
				"roughnessFactor":0.5
			}
		}
	],
	"meshes":[
		{
			"name":"decorative-ceramic-vase-005",
			"primitives":[
				{
					"attributes":{
						"POSITION":0,
						"NORMAL":1,
						"TEXCOORD_0":2
					},
					"indices":3,
					"material":0
				}
			]
		},
		{
			"name":"Cylinder",
			"primitives":[
				{
					"attributes":{
						"POSITION":4,
						"NORMAL":5,
						"TEXCOORD_0":6
					},
					"indices":7,
					"material":1
				}
			]
		},
		{
			"name":"SurfSphere.001",
			"primitives":[
				{
					"attributes":{
						"POSITION":8,
						"NORMAL":9,
						"TEXCOORD_0":10
					},
					"indices":11,
					"material":2
				}
			]
		},
		{
			"name":"SurfSphere.002",
			"primitives":[
				{
					"attributes":{
						"POSITION":12,
						"NORMAL":13,
						"TEXCOORD_0":14
					},
					"indices":11,
					"material":3
				}
			]
		},
		{
			"name":"SurfSphere.003",
			"primitives":[
				{
					"attributes":{
						"POSITION":15,
						"NORMAL":16,
						"TEXCOORD_0":17
					},
					"indices":11,
					"material":4
				}
			]
		},
		{
			"name":"SurfSphere.004",
			"primitives":[
				{
					"attributes":{
						"POSITION":18,
						"NORMAL":19,
						"TEXCOORD_0":20
					},
					"indices":11,
					"material":5
				}
			]
		},
		{
			"name":"SurfSphere.005",
			"primitives":[
				{
					"attributes":{
						"POSITION":21,
						"NORMAL":22,
						"TEXCOORD_0":23
					},
					"indices":11,
					"material":6
				}
			]
		},
		{
			"name":"SurfSphere.006",
			"primitives":[
				{
					"attributes":{
						"POSITION":24,
						"NORMAL":25,
						"TEXCOORD_0":26
					},
					"indices":11,
					"material":7
				}
			]
		},
		{
			"name":"SurfSphere.007",
			"primitives":[
				{
					"attributes":{
						"POSITION":27,
						"NORMAL":28,
						"TEXCOORD_0":29
					},
					"indices":11,
					"material":8
				}
			]
		},
		{
			"name":"SurfSphere.008",
			"primitives":[
				{
					"attributes":{
						"POSITION":30,
						"NORMAL":31,
						"TEXCOORD_0":32
					},
					"indices":11,
					"material":9
				}
			]
		},
		{
			"name":"SurfSphere.009",
			"primitives":[
				{
					"attributes":{
						"POSITION":33,
						"NORMAL":34,
						"TEXCOORD_0":35
					},
					"indices":11,
					"material":10
				}
			]
		}
	],
	"accessors":[
		{
			"bufferView":0,
			"componentType":5126,
			"count":3564,
			"max":[
				0.04288467764854431,
				0.11937989294528961,
				0.042884476482868195
			],
			"min":[
				-0.04289231821894646,
				0,
				-0.04289252310991287
			],
			"type":"VEC3"
		},
		{
			"bufferView":1,
			"componentType":5126,
			"count":3564,
			"type":"VEC3"
		},
		{
			"bufferView":2,
			"componentType":5126,
			"count":3564,
			"type":"VEC2"
		},
		{
			"bufferView":3,
			"componentType":5123,
			"count":18960,
			"type":"SCALAR"
		},
		{
			"bufferView":4,
			"componentType":5126,
			"count":192,
			"max":[
				0.020999999716877937,
				0.0010000000474974513,
				0.020999999716877937
			],
			"min":[
				-0.020999999716877937,
				-0.0010000000474974513,
				-0.020999999716877937
			],
			"type":"VEC3"
		},
		{
			"bufferView":5,
			"componentType":5126,
			"count":192,
			"type":"VEC3"
		},
		{
			"bufferView":6,
			"componentType":5126,
			"count":192,
			"type":"VEC2"
		},
		{
			"bufferView":7,
			"componentType":5123,
			"count":372,
			"type":"SCALAR"
		},
		{
			"bufferView":8,
			"componentType":5126,
			"count":660,
			"max":[
				0.070797398686409,
				0.07100000232458115,
				0.0707974061369896
			],
			"min":[
				-0.0707974061369896,
				-0.07100000232458115,
				-0.070797398686409
			],
			"type":"VEC3"
		},
		{
			"bufferView":9,
			"componentType":5126,
			"count":660,
			"type":"VEC3"
		},
		{
			"bufferView":10,
			"componentType":5126,
			"count":660,
			"type":"VEC2"
		},
		{
			"bufferView":11,
			"componentType":5123,
			"count":3648,
			"type":"SCALAR"
		},
		{
			"bufferView":12,
			"componentType":5126,
			"count":660,
			"max":[
				0.070797398686409,
				0.07100000232458115,
				0.0707974061369896
			],
			"min":[
				-0.0707974061369896,
				-0.07100000232458115,
				-0.070797398686409
			],
			"type":"VEC3"
		},
		{
			"bufferView":13,
			"componentType":5126,
			"count":660,
			"type":"VEC3"
		},
		{
			"bufferView":14,
			"componentType":5126,
			"count":660,
			"type":"VEC2"
		},
		{
			"bufferView":15,
			"componentType":5126,
			"count":660,
			"max":[
				0.070797398686409,
				0.07100000232458115,
				0.0707974061369896
			],
			"min":[
				-0.0707974061369896,
				-0.07100000232458115,
				-0.070797398686409
			],
			"type":"VEC3"
		},
		{
			"bufferView":16,
			"componentType":5126,
			"count":660,
			"type":"VEC3"
		},
		{
			"bufferView":17,
			"componentType":5126,
			"count":660,
			"type":"VEC2"
		},
		{
			"bufferView":18,
			"componentType":5126,
			"count":660,
			"max":[
				0.070797398686409,
				0.07100000232458115,
				0.0707974061369896
			],
			"min":[
				-0.0707974061369896,
				-0.07100000232458115,
				-0.070797398686409
			],
			"type":"VEC3"
		},
		{
			"bufferView":19,
			"componentType":5126,
			"count":660,
			"type":"VEC3"
		},
		{
			"bufferView":20,
			"componentType":5126,
			"count":660,
			"type":"VEC2"
		},
		{
			"bufferView":21,
			"componentType":5126,
			"count":660,
			"max":[
				0.070797398686409,
				0.07100000232458115,
				0.0707974061369896
			],
			"min":[
				-0.0707974061369896,
				-0.07100000232458115,
				-0.070797398686409
			],
			"type":"VEC3"
		},
		{
			"bufferView":22,
			"componentType":5126,
			"count":660,
			"type":"VEC3"
		},
		{
			"bufferView":23,
			"componentType":5126,
			"count":660,
			"type":"VEC2"
		},
		{
			"bufferView":24,
			"componentType":5126,
			"count":660,
			"max":[
				0.070797398686409,
				0.07100000232458115,
				0.0707974061369896
			],
			"min":[
				-0.0707974061369896,
				-0.07100000232458115,
				-0.070797398686409
			],
			"type":"VEC3"
		},
		{
			"bufferView":25,
			"componentType":5126,
			"count":660,
			"type":"VEC3"
		},
		{
			"bufferView":26,
			"componentType":5126,
			"count":660,
			"type":"VEC2"
		},
		{
			"bufferView":27,
			"componentType":5126,
			"count":660,
			"max":[
				0.070797398686409,
				0.07100000232458115,
				0.0707974061369896
			],
			"min":[
				-0.0707974061369896,
				-0.07100000232458115,
				-0.070797398686409
			],
			"type":"VEC3"
		},
		{
			"bufferView":28,
			"componentType":5126,
			"count":660,
			"type":"VEC3"
		},
		{
			"bufferView":29,
			"componentType":5126,
			"count":660,
			"type":"VEC2"
		},
		{
			"bufferView":30,
			"componentType":5126,
			"count":660,
			"max":[
				0.070797398686409,
				0.07100000232458115,
				0.0707974061369896
			],
			"min":[
				-0.0707974061369896,
				-0.07100000232458115,
				-0.070797398686409
			],
			"type":"VEC3"
		},
		{
			"bufferView":31,
			"componentType":5126,
			"count":660,
			"type":"VEC3"
		},
		{
			"bufferView":32,
			"componentType":5126,
			"count":660,
			"type":"VEC2"
		},
		{
			"bufferView":33,
			"componentType":5126,
			"count":660,
			"max":[
				0.070797398686409,
				0.07100000232458115,
				0.0707974061369896
			],
			"min":[
				-0.0707974061369896,
				-0.07100000232458115,
				-0.070797398686409
			],
			"type":"VEC3"
		},
		{
			"bufferView":34,
			"componentType":5126,
			"count":660,
			"type":"VEC3"
		},
		{
			"bufferView":35,
			"componentType":5126,
			"count":660,
			"type":"VEC2"
		}
	],
	"bufferViews":[
		{
			"buffer":0,
			"byteLength":42768,
			"byteOffset":0,
			"target":34962
		},
		{
			"buffer":0,
			"byteLength":42768,
			"byteOffset":42768,
			"target":34962
		},
		{
			"buffer":0,
			"byteLength":28512,
			"byteOffset":85536,
			"target":34962
		},
		{
			"buffer":0,
			"byteLength":37920,
			"byteOffset":114048,
			"target":34963
		},
		{
			"buffer":0,
			"byteLength":2304,
			"byteOffset":151968,
			"target":34962
		},
		{
			"buffer":0,
			"byteLength":2304,
			"byteOffset":154272,
			"target":34962
		},
		{
			"buffer":0,
			"byteLength":1536,
			"byteOffset":156576,
			"target":34962
		},
		{
			"buffer":0,
			"byteLength":744,
			"byteOffset":158112,
			"target":34963
		},
		{
			"buffer":0,
			"byteLength":7920,
			"byteOffset":158856,
			"target":34962
		},
		{
			"buffer":0,
			"byteLength":7920,
			"byteOffset":166776,
			"target":34962
		},
		{
			"buffer":0,
			"byteLength":5280,
			"byteOffset":174696,
			"target":34962
		},
		{
			"buffer":0,
			"byteLength":7296,
			"byteOffset":179976,
			"target":34963
		},
		{
			"buffer":0,
			"byteLength":7920,
			"byteOffset":187272,
			"target":34962
		},
		{
			"buffer":0,
			"byteLength":7920,
			"byteOffset":195192,
			"target":34962
		},
		{
			"buffer":0,
			"byteLength":5280,
			"byteOffset":203112,
			"target":34962
		},
		{
			"buffer":0,
			"byteLength":7920,
			"byteOffset":208392,
			"target":34962
		},
		{
			"buffer":0,
			"byteLength":7920,
			"byteOffset":216312,
			"target":34962
		},
		{
			"buffer":0,
			"byteLength":5280,
			"byteOffset":224232,
			"target":34962
		},
		{
			"buffer":0,
			"byteLength":7920,
			"byteOffset":229512,
			"target":34962
		},
		{
			"buffer":0,
			"byteLength":7920,
			"byteOffset":237432,
			"target":34962
		},
		{
			"buffer":0,
			"byteLength":5280,
			"byteOffset":245352,
			"target":34962
		},
		{
			"buffer":0,
			"byteLength":7920,
			"byteOffset":250632,
			"target":34962
		},
		{
			"buffer":0,
			"byteLength":7920,
			"byteOffset":258552,
			"target":34962
		},
		{
			"buffer":0,
			"byteLength":5280,
			"byteOffset":266472,
			"target":34962
		},
		{
			"buffer":0,
			"byteLength":7920,
			"byteOffset":271752,
			"target":34962
		},
		{
			"buffer":0,
			"byteLength":7920,
			"byteOffset":279672,
			"target":34962
		},
		{
			"buffer":0,
			"byteLength":5280,
			"byteOffset":287592,
			"target":34962
		},
		{
			"buffer":0,
			"byteLength":7920,
			"byteOffset":292872,
			"target":34962
		},
		{
			"buffer":0,
			"byteLength":7920,
			"byteOffset":300792,
			"target":34962
		},
		{
			"buffer":0,
			"byteLength":5280,
			"byteOffset":308712,
			"target":34962
		},
		{
			"buffer":0,
			"byteLength":7920,
			"byteOffset":313992,
			"target":34962
		},
		{
			"buffer":0,
			"byteLength":7920,
			"byteOffset":321912,
			"target":34962
		},
		{
			"buffer":0,
			"byteLength":5280,
			"byteOffset":329832,
			"target":34962
		},
		{
			"buffer":0,
			"byteLength":7920,
			"byteOffset":335112,
			"target":34962
		},
		{
			"buffer":0,
			"byteLength":7920,
			"byteOffset":343032,
			"target":34962
		},
		{
			"buffer":0,
			"byteLength":5280,
			"byteOffset":350952,
			"target":34962
		}
	],
	"buffers":[
		{
			"byteLength":356232,
			"uri":"decorative-ceramic-vase2.bin"
		}
	]
}
